<?xml version="1.0" standalone="no"?><!DOCTYPE svg PUBLIC "-//W3C//DTD SVG 1.1//EN" "http://www.w3.org/Graphics/SVG/1.1/DTD/svg11.dtd"><svg t="1612852815011" class="icon" viewBox="0 0 2304 1024" version="1.1" xmlns="http://www.w3.org/2000/svg" p-id="6481" width="144" height="64" xmlns:xlink="http://www.w3.org/1999/xlink"><defs><style type="text/css"></style></defs><path d="M 1109.52 844.989 l 69.4788 -173.041 l 69.4788 173.041 l -69.4788 173.041 Z" p-id="6482"></path><path d="M 1109.52 286.546 h 138.958 v 553.211 h -138.958 Z" p-id="6483"></path><path d="M 1198.62 286.546 h 180.908 l -59.44 60.3026 H 1258.9 v 62.051 L 1198.62 470.073 Z M 1164.54 286.546 h -183.531 l 61.1757 61.1757 h 61.1781 v 61.1781 L 1164.54 470.073 Z M 1133.11 88.6043 c 0 -22.443 21.1296 -40.6386 47.1932 -40.6386 s 47.1932 18.1955 47.1932 40.6386 c 0 22.443 -21.1296 40.6386 -47.1932 40.6386 s -47.1932 -18.1955 -47.1932 -40.6386 Z" p-id="6484"></path><path d="M 1156.69 108.255 h 44.5718 v 272.672 h -44.5718 Z" p-id="6485"></path><path d="M 1127.88 852.843 l 51.1261 -125.849 l 51.1261 125.849 l -51.1261 125.849 Z" fill="#ffc000" p-id="6486"></path><path d="M 1127.88 299.655 h 102.252 v 553.211 h -102.252 Z" fill="#ffc000" p-id="6487"></path><path d="M 1193.37 299.655 h 131.092 l -43.6982 43.6982 h -43.6959 v 43.6959 L 1193.37 430.748 Z M 1167.19 299.655 h -131.092 l 43.6959 43.6959 h 43.6982 v 43.6982 L 1167.19 430.748 Z M 1143.59 101.712 c 0 -16.6514 15.8465 -30.1514 35.395 -30.1514 s 35.395 13.4999 35.395 30.1514 s -15.8465 30.1514 -35.395 30.1514 s -35.395 -13.4999 -35.395 -30.1514 Z" fill="#ffc000" p-id="6488"></path><path d="M 1161.94 116.123 h 34.0841 v 199.261 h -34.0841 Z" fill="#ffc000" p-id="6489"></path></svg>