<?xml version="1.0" standalone="no"?><!DOCTYPE svg PUBLIC "-//W3C//DTD SVG 1.1//EN" "http://www.w3.org/Graphics/SVG/1.1/DTD/svg11.dtd"><svg t="1612853233662" class="icon" viewBox="0 0 1024 1024" version="1.1" xmlns="http://www.w3.org/2000/svg" p-id="7370" width="64" height="64" xmlns:xlink="http://www.w3.org/1999/xlink"><defs><style type="text/css"></style></defs><path d="M466.997895 170.846316h67.907368a20.210526 20.210526 0 0 0 0-40.421053h-67.907368a20.210526 20.210526 0 0 0 0 40.421053zM902.736842 983.578947h-122.88a74.913684 74.913684 0 0 0 8.353684-33.68421v-80.842105a74.105263 74.105263 0 0 0-74.105263-74.105264h-150.366316a18.054737 18.054737 0 0 0 1.616842-7.545263v-150.096842l271.629474-252.496842a20.210526 20.210526 0 0 0 0-28.56421 19.671579 19.671579 0 0 0-28.294737 0l-244.143158 227.166315V377.263158a87.309474 87.309474 0 0 0 8.623158-4.581053 96.202105 96.202105 0 0 1 23.174737 62.248421h40.421053a137.162105 137.162105 0 0 0-47.696842-103.477894l-12.39579-10.509474-13.20421 9.701053a101.861053 101.861053 0 0 1-43.11579 19.132631v-46.08H559.157895a20.210526 20.210526 0 0 0 0-40.421053h-37.99579V177.583158h-40.421052v85.692631h-44.193685a20.210526 20.210526 0 0 0 0 40.421053h44.193685V350.315789a100.244211 100.244211 0 0 1-43.11579-19.132631l-13.20421-11.048421-12.39579 10.509474a137.162105 137.162105 0 0 0-47.696842 103.477894h40.421053a96.202105 96.202105 0 0 1 23.174737-62.248421 87.309474 87.309474 0 0 0 8.623157 4.581053v325.793684l-33.953684 31.258947a20.210526 20.210526 0 0 0 0 28.564211 19.132632 19.132632 0 0 0 14.551579 6.467368 18.863158 18.863158 0 0 0 13.743158-5.389473l6.467368-5.928421v30.181052a23.444211 23.444211 0 0 0 1.347369 7.545263H309.894737A74.105263 74.105263 0 0 0 235.789474 869.052632v80.842105a74.913684 74.913684 0 0 0 8.353684 33.68421H121.263158a20.210526 20.210526 0 0 0 0 40.421053h781.473684a20.210526 20.210526 0 0 0 0-40.421053zM478.315789 389.389474a158.989474 158.989474 0 0 0 47.966316 0V619.789474L478.315789 664.522105z m0 398.012631v-67.637894l47.966316-44.732632v112.370526a18.054737 18.054737 0 0 0 1.616842 7.545263h-51.2a18.054737 18.054737 0 0 0 1.616842-7.545263zM309.894737 983.578947a33.684211 33.684211 0 0 1-33.684211-33.68421v-80.842105A33.684211 33.684211 0 0 1 309.894737 835.368421h404.210526A33.684211 33.684211 0 0 1 747.789474 869.052632v80.842105a33.684211 33.684211 0 0 1-33.684211 33.68421zM633.263158 175.157895a19.941053 19.941053 0 0 0 14.282105-5.928421l134.736842-134.736842A20.210526 20.210526 0 0 0 753.717895 5.928421l-134.736842 134.736842a20.210526 20.210526 0 0 0 0 28.564211 19.941053 19.941053 0 0 0 14.282105 5.928421zM134.736842 673.684211a19.941053 19.941053 0 0 0 14.282105-5.928422l80.842106-80.842105a20.210526 20.210526 0 0 0-28.564211-28.56421l-80.842105 80.842105a20.210526 20.210526 0 0 0 0 28.56421 19.941053 19.941053 0 0 0 14.282105 5.928422z" fill="#7325e7" p-id="7371"></path></svg>